<svg viewBox="0 0 98 97" fill="none" xmlns="http://www.w3.org/2000/svg"><path d="M1 48.5h96M49 96.5c26.51 0 48-21.49 48-48S75.51.5 49 .5 1 21.99 1 48.5s21.49 48 48 48Z" stroke="#0F0F19"/><path d="M48.998 96.5c9.589 0 17.362-21.49 17.362-48S58.587.5 48.998.5c-9.588 0-17.361 21.49-17.361 48s7.773 48 17.361 48Z" stroke="#0F0F19"/><path d="M48.999 96.5c19.74 0 35.744-21.49 35.744-48S68.74.5 49 .5c-19.742 0-35.745 21.49-35.745 48s16.003 48 35.745 48Z" stroke="#0F0F19"/><path d="M49 96.5c26.51 0 48-21.49 48-48S75.51.5 49 .5 1 21.99 1 48.5s21.49 48 48 48Z" stroke="#0F0F19"/><path d="M85.59 79.141a97.225 97.225 0 0 0-73.184 0M85.59 17.86A96.664 96.664 0 0 1 49 25.007a96.665 96.665 0 0 1-36.593-7.149" stroke="#0F0F19"/></svg>