<svg viewBox="0 0 560 208" fill="none" xmlns="http://www.w3.org/2000/svg"><path d="M381.51 130.803h35.426V0H286.133v130.803h35.426V35.426h12.262v95.377h35.426V35.426h12.263v95.377ZM273.867 0H143.064v130.803h130.803V0Zm-35.426 95.377H178.49V35.426h59.951v59.951ZM429.197 0v130.803h35.426v-29.976h59.951v29.976H560V0H429.197Zm95.377 65.401h-59.951V35.426h59.951V65.4ZM95.377 130.803h35.426V0H95.377v47.688H35.426V0H0v130.803h35.426V83.114h59.951v47.689ZM5.028 173.979H0v28.109h5.028v-28.109ZM30.14 188.08H15.07v5.028h10.042v8.965h5.028V188.08Z" fill="currentColor"/><path d="M25.111 202.079H5.027v5.028h20.084v-5.028ZM25.111 168.951H5.027v5.028h20.084v-5.028ZM30.141 173.979h-5.028v6.473h5.028v-6.473ZM61.657 168.951H51.615v5.028h10.042v-5.028ZM66.682 190.588H46.598v-11.595H41.57v28.109h5.028v-11.486h20.084v11.486h5.027v-28.109h-5.027v11.595Z" fill="currentColor"/><path d="M51.625 173.979h-5.027v5.028h5.027v-5.028ZM66.68 173.979h-5.028v5.028h5.028v-5.028ZM113.389 178.789h-5.082v5.014h5.082v23.299h5.014v-38.151h-5.014v9.838Z" fill="currentColor"/><path d="M108.309 183.809h-5.028v13.257h5.028v-13.257Z" fill="currentColor"/><path d="M103.293 197.065h-5.027v5.028h5.027v-5.028ZM88.155 178.789v-9.838H83.14v38.151h5.014v-23.299h5.082v-5.014h-5.082ZM98.264 183.809h-5.028v13.257h5.028v-13.257ZM155.056 168.951h-20.138v5.028h20.138v-5.028ZM155.056 202.079h-20.138v5.028h20.138v-5.028ZM129.832 202.075h5.082v-11.65h15.124v-5.014h-15.124v-11.432h-5.082v28.096ZM190.156 173.979h12.713v33.123h5.082v-33.123h12.767v-5.028h-30.562v5.028ZM255.91 185.302h-20.084v-16.351h-5.082v38.151h5.082v-16.773h20.084v16.773h5.082v-38.151h-5.082v16.351ZM272.137 202.075h5.082v-11.65h15.11v-5.014h-15.11v-11.432h-5.082v28.096ZM297.359 168.951h-20.138v5.028h20.138v-5.028ZM297.359 202.079h-20.138v5.028h20.138v-5.028ZM337.473 173.979h-5.028v11.323h5.028v-11.323ZM357.607 168.951h-20.138v5.028h20.138v-5.028ZM357.607 185.306h-20.138v5.027h20.138v-5.027ZM357.607 202.079h-20.138v5.028h20.138v-5.028Z" fill="currentColor"/><path d="M337.473 197.065h-5.028v5.028h5.028v-5.028ZM362.694 190.334h-5.083v11.759h5.083v-11.759ZM362.694 173.979h-5.083v5.028h5.083v-5.028ZM392.842 185.574h-4.973v5.014h5.028v-5.014h4.959v-16.623h-5.014v16.623ZM382.801 185.577h-5.028v5.028h5.028v-5.028ZM377.776 168.951h-5.028v16.623h5.028v-16.623ZM387.869 190.592h-5.068v16.514h5.068v-16.514ZM413.582 173.979h-5.027v11.323h5.027v-11.323ZM433.707 168.951h-20.139v5.028h20.139v-5.028ZM433.707 185.306h-20.139v5.027h20.139v-5.027ZM438.801 173.979h-5.082v5.028h5.082v-5.028ZM438.801 190.334h-5.082v11.759h5.082v-11.759ZM413.584 197.065h-5.027v5.028h5.027v-5.028Z" fill="currentColor"/><path d="M433.707 202.079h-20.139v5.028h20.139v-5.028ZM448.859 173.979h12.713v33.123h5.082v-33.123h12.767v-5.028h-30.562v5.028ZM514.666 168.951h-20.139v5.028h20.139v-5.028ZM514.666 202.079h-20.139v5.028h20.139v-5.028ZM489.449 202.075h5.082v-11.65h15.125v-5.014h-15.125v-11.432h-5.082v28.096ZM549.903 183.809h-5.028v13.257h5.028v-13.257ZM539.86 183.809h-5.028v13.257h5.028v-13.257ZM554.971 178.789h-5.069v5.014h5.069v23.299h5.028v-38.151h-5.028v9.838ZM529.748 178.789v-9.838h-5.014v38.151h5.014v-23.299h5.083v-5.014h-5.083Z" fill="currentColor"/><path d="M544.889 197.065h-5.028v5.028h5.028v-5.028Z" fill="currentColor"/></svg>