<svg viewBox="0 0 360 613" fill="none" xmlns="http://www.w3.org/2000/svg"><g filter="url(#a)"><path d="M62.486 612.111C28.032 612.111 0 588.81 0 560.17V51.938C0 23.298 28.032 0 62.486 0h235.028C331.968 0 360 23.298 360 51.938V560.17c0 28.64-28.032 51.941-62.486 51.941H62.486Z" fill="url(#b)" fill-opacity=".65"/></g><g style="mix-blend-mode:multiply"><path d="M62.486 612.114C28.032 612.114 0 588.813 0 560.173V51.941C0 23.301 28.032.003 62.486.003h235.028C331.968.003 360 23.301 360 51.941v508.232c0 28.64-28.032 51.941-62.486 51.941H62.486Z" fill="url(#c)"/><path d="M354.371 558.579V50.347c0-11.783-5.631-23.083-15.654-31.414C328.694 10.6 315.1 5.92 300.926 5.92H65.886C56.358 5.907 47 8.021 38.79 12.042c7.239-2.904 15.175-4.409 23.212-4.4h235.041c7.02 0 13.971 1.15 20.457 3.383 6.485 2.233 12.378 5.507 17.341 9.633 4.963 4.127 8.9 9.026 11.586 14.417 2.685 5.392 4.066 11.17 4.065 17.006v508.232c.002 7.739-2.429 15.345-7.053 22.062-4.625 6.717-11.281 12.313-19.31 16.232 9.061-3.63 16.706-9.313 22.056-16.394 5.349-7.081 8.186-15.273 8.185-23.634Z" fill="url(#d)"/><path d="M5.361 561.807V53.575c0-27.834 27.242-50.482 60.731-50.482h235.04c7.56-.005 15.053 1.17 22.092 3.462-8.179-3.263-17.136-4.953-26.207-4.945H61.96C28.471 1.61 1.225 24.26 1.225 52.093v508.232c0 21.369 16.057 39.661 38.664 47.02-10.332-4.116-19.054-10.574-25.163-18.63-6.109-8.057-9.355-17.384-9.365-26.908Z" fill="url(#e)"/><path d="M350.962 560.175c-.001 11.783-5.633 23.082-15.656 31.414-10.024 8.331-23.618 13.011-37.793 13.011H62.485c-7.019.001-13.969-1.148-20.454-3.38-6.484-2.233-12.377-5.505-17.34-9.63-4.963-4.126-8.9-9.023-11.586-14.413-2.686-5.391-4.069-11.168-4.069-17.002V51.943c0-5.835 1.383-11.612 4.069-17.002 2.686-5.39 6.623-10.288 11.586-14.413s10.856-7.398 17.34-9.63c6.485-2.233 13.435-3.381 20.454-3.38h235.028c7.019-.001 13.969 1.147 20.454 3.38 6.485 2.232 12.377 5.505 17.34 9.63 4.963 4.125 8.9 9.023 11.587 14.413 2.686 5.39 4.068 11.167 4.068 17.002v508.232Z" fill="url(#f)"/><path opacity=".5" d="M346.403 560.064V53.481c0-24.457-23.319-44.28-52.067-44.28h4.562c28.751 0 52.066 19.823 52.066 44.28v506.583c0 24.454-23.319 44.283-52.066 44.283h-4.562c28.748 0 52.067-19.84 52.067-44.283Z" fill="url(#g)"/><path d="M13.61 560.168V52.045c0-24.536 23.397-44.422 52.26-44.422H61.29C32.43 7.623 9.03 27.509 9.03 52.045v508.123c0 24.535 23.4 44.426 52.262 44.426h4.578c-28.862 0-52.258-19.891-52.258-44.426Z" fill="url(#h)"/><path d="M350.962 560.175c-.001 11.783-5.633 23.082-15.656 31.414-10.024 8.331-23.618 13.011-37.793 13.011H62.485c-7.019.001-13.969-1.148-20.454-3.38-6.484-2.233-12.377-5.505-17.34-9.63-4.963-4.126-8.9-9.023-11.586-14.413-2.686-5.391-4.069-11.168-4.069-17.002V51.943c0-5.835 1.383-11.612 4.069-17.002 2.686-5.39 6.623-10.288 11.586-14.413s10.856-7.398 17.34-9.63c6.485-2.233 13.435-3.381 20.454-3.38h235.028c7.019-.001 13.969 1.147 20.454 3.38 6.485 2.232 12.377 5.505 17.34 9.63 4.963 4.125 8.9 9.023 11.587 14.413 2.686 5.39 4.068 11.167 4.068 17.002v508.232Z" fill="url(#i)"/><path d="M62.486 599.214c-12.452-.016-24.387-4.134-33.192-11.452-8.805-7.319-13.76-17.24-13.781-27.59V51.94c.014-10.352 4.967-20.276 13.774-27.595 8.806-7.32 20.745-11.437 33.199-11.447h235.028c12.453.01 24.392 4.127 33.199 11.447 8.806 7.319 13.759 17.243 13.774 27.595v508.232c-.021 10.35-4.977 20.271-13.781 27.59-8.805 7.318-20.741 11.436-33.192 11.452H62.486Z" fill="#181716"/><path d="M297.513 600.078H62.485c-12.726-.013-24.926-4.221-33.924-11.7-8.998-7.48-14.06-17.622-14.076-28.2V51.946c.014-10.578 5.076-20.72 14.075-28.2 8.998-7.48 21.2-11.687 33.925-11.7h235.028c12.727.013 24.928 4.22 33.927 11.7 8.999 7.48 14.062 17.622 14.077 28.2v508.232c-.015 10.579-5.078 20.721-14.077 28.201-8.999 7.48-21.2 11.687-33.927 11.699ZM62.485 13.761c-12.18.009-23.86 4.035-32.474 11.194-8.614 7.159-13.459 16.866-13.472 26.991v508.232c.014 10.125 4.86 19.832 13.473 26.991 8.614 7.159 20.292 11.185 32.473 11.195h235.028c12.179-.012 23.856-4.039 32.468-11.197 8.612-7.159 13.456-16.865 13.47-26.989V51.946c-.013-10.124-4.857-19.83-13.469-26.989-8.612-7.159-20.289-11.185-32.469-11.196H62.485Z" fill="#231F20"/></g><defs><linearGradient id="b" x1="435.769" y1="518.665" x2="17.708" y2="15.73" gradientUnits="userSpaceOnUse"><stop stop-color="#6B6E70"/><stop offset="1" stop-color="#E6E7E8"/></linearGradient><linearGradient id="c" x1="435.769" y1="518.669" x2="17.708" y2="15.733" gradientUnits="userSpaceOnUse"><stop stop-color="#6B6E70"/><stop offset="1" stop-color="#E6E7E8"/></linearGradient><linearGradient id="d" x1="196.581" y1="598.607" x2="196.581" y2="5.921" gradientUnits="userSpaceOnUse"><stop offset=".25" stop-color="#919191"/><stop offset=".96" stop-color="#F2F2F2"/><stop offset="1" stop-color="#B8B8B8"/></linearGradient><linearGradient id="e" x1="1.225" y1="304.476" x2="323.203" y2="304.476" gradientUnits="userSpaceOnUse"><stop stop-color="#C7C7C7"/><stop offset=".11" stop-color="#fff"/><stop offset=".33" stop-color="#BDBDBD"/><stop offset="1" stop-color="#919191"/></linearGradient><linearGradient id="f" x1="368.476" y1="577.426" x2="86.201" y2="-10.75" gradientUnits="userSpaceOnUse"><stop stop-color="#9D9FA1"/><stop offset="1" stop-color="#E6E7E8"/></linearGradient><linearGradient id="g" x1="322.654" y1="604.347" x2="322.654" y2="9.202" gradientUnits="userSpaceOnUse"><stop stop-color="#605959"/><stop offset=".12" stop-color="#696262"/><stop offset=".31" stop-color="#807A7A"/><stop offset=".55" stop-color="#A6A2A2"/><stop offset=".82" stop-color="#DAD8D8"/><stop offset="1" stop-color="#fff"/></linearGradient><linearGradient id="h" x1="37.449" y1="604.594" x2="37.449" y2="7.623" gradientUnits="userSpaceOnUse"><stop stop-color="#605959"/><stop offset=".12" stop-color="#696262"/><stop offset=".31" stop-color="#807A7A"/><stop offset=".55" stop-color="#A6A2A2"/><stop offset=".82" stop-color="#DAD8D8"/><stop offset="1" stop-color="#fff"/></linearGradient><linearGradient id="i" x1="368.476" y1="577.426" x2="86.201" y2="-10.75" gradientUnits="userSpaceOnUse"><stop stop-color="#9D9FA1"/><stop offset="1" stop-color="#E6E7E8"/></linearGradient><filter id="a" x="-6.857" y="-6.857" width="373.714" height="625.825" filterUnits="userSpaceOnUse" color-interpolation-filters="sRGB"><feFlood flood-opacity="0" result="BackgroundImageFix"/><feGaussianBlur in="BackgroundImage" stdDeviation="3.429"/><feComposite in2="SourceAlpha" operator="in" result="effect1_backgroundBlur_2554_40"/><feBlend in="SourceGraphic" in2="effect1_backgroundBlur_2554_40" result="shape"/></filter></defs></svg>