<svg viewBox="0 0 192 194" fill="none" xmlns="http://www.w3.org/2000/svg"><path d="M96 115.332c18.778 0 34-15.52 34-34.666C130 61.521 114.778 46 96 46S62 61.52 62 80.666c0 19.145 15.222 34.666 34 34.666ZM0 192.844h192" stroke="#0F0F19"/><path d="M40.85 24.299c-14.626 14.914-22.842 35.14-22.842 56.23 0 21.09 8.216 41.317 22.841 56.231L96.01 193l55.16-56.24c14.625-14.914 22.841-35.141 22.841-56.23 0-21.09-8.216-41.317-22.841-56.231a77.91 77.91 0 0 0-25.307-17.244A76.697 76.697 0 0 0 96.009 1a76.702 76.702 0 0 0-29.853 6.055A77.916 77.916 0 0 0 40.85 24.3Z" stroke="#0F0F19" stroke-linejoin="bevel"/></svg>