<svg viewBox="0 0 194 194" fill="none" xmlns="http://www.w3.org/2000/svg"><path d="M1 97h192M97 193c53.019 0 96-42.981 96-96 0-53.02-42.981-96-96-96C43.98 1 1 43.98 1 97c0 53.019 42.98 96 96 96Z" stroke="#0F0F19"/><path d="M97.005 193c19.177 0 34.723-42.981 34.723-96 0-53.02-15.546-96-34.723-96C77.827 1 62.28 43.98 62.28 97c0 53.019 15.546 96 34.724 96Z" stroke="#0F0F19"/><path d="M96.997 193c39.483 0 71.49-42.981 71.49-96 0-53.02-32.007-96-71.49-96-39.482 0-71.49 42.98-71.49 96 0 53.019 32.008 96 71.49 96Z" stroke="#0F0F19"/><path d="M97 193c53.019 0 96-42.981 96-96 0-53.02-42.981-96-96-96C43.98 1 1 43.98 1 97c0 53.019 42.98 96 96 96Z" stroke="#0F0F19"/><path d="M170.19 158.282a194.449 194.449 0 0 0-146.37 0M170.19 35.734a193.328 193.328 0 0 1-73.185 14.298A193.328 193.328 0 0 1 23.82 35.734" stroke="#0F0F19"/></svg>